<mxfile host="app.diagrams.net" modified="2021-02-10T17:08:08.455Z" agent="5.0 (X11; Linux x86_64) AppleWebKit/537.36 (KHTML, like Gecko) Chrome/88.0.4324.150 Safari/537.36" etag="H1k7zbYuouvkWSb_Mlge" version="14.3.0" type="github">
  <diagram id="NxqjKblisUVCrX8Mis7g" name="Page-1">
    <mxGraphModel dx="1102" dy="2820" grid="1" gridSize="10" guides="1" tooltips="1" connect="1" arrows="1" fold="1" page="1" pageScale="1" pageWidth="850" pageHeight="1100" math="0" shadow="0">
      <root>
        <mxCell id="0" />
        <mxCell id="1" parent="0" />
        <mxCell id="CqulzE3-XeiQ91XCOGyz-1" value="Users" style="swimlane;fontStyle=0;childLayout=stackLayout;horizontal=1;startSize=26;fillColor=#dae8fc;horizontalStack=0;resizeParent=1;resizeParentMax=0;resizeLast=0;collapsible=1;marginBottom=0;strokeColor=#6c8ebf;" parent="1" vertex="1">
          <mxGeometry x="30" y="-2160" width="200" height="442" as="geometry">
            <mxRectangle x="60" y="280" width="60" height="26" as="alternateBounds" />
          </mxGeometry>
        </mxCell>
        <mxCell id="CqulzE3-XeiQ91XCOGyz-2" value="_id(PK)                      UID(UniqueID)" style="text;fillColor=#dae8fc;align=left;verticalAlign=top;spacingLeft=4;spacingRight=4;overflow=hidden;rotatable=0;points=[[0,0.5],[1,0.5]];portConstraint=eastwest;strokeColor=#6c8ebf;" parent="CqulzE3-XeiQ91XCOGyz-1" vertex="1">
          <mxGeometry y="26" width="200" height="26" as="geometry" />
        </mxCell>
        <mxCell id="CqulzE3-XeiQ91XCOGyz-12" value="UserName                             String" style="text;fillColor=#dae8fc;align=left;verticalAlign=top;spacingLeft=4;spacingRight=4;overflow=hidden;rotatable=0;points=[[0,0.5],[1,0.5]];portConstraint=eastwest;strokeColor=#6c8ebf;" parent="CqulzE3-XeiQ91XCOGyz-1" vertex="1">
          <mxGeometry y="52" width="200" height="26" as="geometry" />
        </mxCell>
        <mxCell id="CqulzE3-XeiQ91XCOGyz-3" value="Name                                    String" style="text;fillColor=#dae8fc;align=left;verticalAlign=top;spacingLeft=4;spacingRight=4;overflow=hidden;rotatable=0;points=[[0,0.5],[1,0.5]];portConstraint=eastwest;strokeColor=#6c8ebf;" parent="CqulzE3-XeiQ91XCOGyz-1" vertex="1">
          <mxGeometry y="78" width="200" height="26" as="geometry" />
        </mxCell>
        <mxCell id="CqulzE3-XeiQ91XCOGyz-4" value="Lastname                              String" style="text;fillColor=#dae8fc;align=left;verticalAlign=top;spacingLeft=4;spacingRight=4;overflow=hidden;rotatable=0;points=[[0,0.5],[1,0.5]];portConstraint=eastwest;strokeColor=#6c8ebf;" parent="CqulzE3-XeiQ91XCOGyz-1" vertex="1">
          <mxGeometry y="104" width="200" height="26" as="geometry" />
        </mxCell>
        <mxCell id="CqulzE3-XeiQ91XCOGyz-7" value="Email                                      String" style="text;fillColor=#dae8fc;align=left;verticalAlign=top;spacingLeft=4;spacingRight=4;overflow=hidden;rotatable=0;points=[[0,0.5],[1,0.5]];portConstraint=eastwest;strokeColor=#6c8ebf;" parent="CqulzE3-XeiQ91XCOGyz-1" vertex="1">
          <mxGeometry y="130" width="200" height="26" as="geometry" />
        </mxCell>
        <mxCell id="CqulzE3-XeiQ91XCOGyz-5" value="Phone                                    String" style="text;fillColor=#dae8fc;align=left;verticalAlign=top;spacingLeft=4;spacingRight=4;overflow=hidden;rotatable=0;points=[[0,0.5],[1,0.5]];portConstraint=eastwest;strokeColor=#6c8ebf;" parent="CqulzE3-XeiQ91XCOGyz-1" vertex="1">
          <mxGeometry y="156" width="200" height="26" as="geometry" />
        </mxCell>
        <mxCell id="CqulzE3-XeiQ91XCOGyz-8" value="Password                               String" style="text;fillColor=#dae8fc;align=left;verticalAlign=top;spacingLeft=4;spacingRight=4;overflow=hidden;rotatable=0;points=[[0,0.5],[1,0.5]];portConstraint=eastwest;strokeColor=#6c8ebf;" parent="CqulzE3-XeiQ91XCOGyz-1" vertex="1">
          <mxGeometry y="182" width="200" height="26" as="geometry" />
        </mxCell>
        <mxCell id="CqulzE3-XeiQ91XCOGyz-14" value="//Status                               Boolean" style="text;fillColor=#dae8fc;align=left;verticalAlign=top;spacingLeft=4;spacingRight=4;overflow=hidden;rotatable=0;points=[[0,0.5],[1,0.5]];portConstraint=eastwest;strokeColor=#6c8ebf;" parent="CqulzE3-XeiQ91XCOGyz-1" vertex="1">
          <mxGeometry y="208" width="200" height="26" as="geometry" />
        </mxCell>
        <mxCell id="CqulzE3-XeiQ91XCOGyz-13" value="Description                             String" style="text;fillColor=#dae8fc;align=left;verticalAlign=top;spacingLeft=4;spacingRight=4;overflow=hidden;rotatable=0;points=[[0,0.5],[1,0.5]];portConstraint=eastwest;strokeColor=#6c8ebf;" parent="CqulzE3-XeiQ91XCOGyz-1" vertex="1">
          <mxGeometry y="234" width="200" height="26" as="geometry" />
        </mxCell>
        <mxCell id="CqulzE3-XeiQ91XCOGyz-15" value="Avatar                                     String" style="text;fillColor=#dae8fc;align=left;verticalAlign=top;spacingLeft=4;spacingRight=4;overflow=hidden;rotatable=0;points=[[0,0.5],[1,0.5]];portConstraint=eastwest;strokeColor=#6c8ebf;" parent="CqulzE3-XeiQ91XCOGyz-1" vertex="1">
          <mxGeometry y="260" width="200" height="26" as="geometry" />
        </mxCell>
        <mxCell id="CqulzE3-XeiQ91XCOGyz-10" value="CreatedAt                                Date" style="text;fillColor=#dae8fc;align=left;verticalAlign=top;spacingLeft=4;spacingRight=4;overflow=hidden;rotatable=0;points=[[0,0.5],[1,0.5]];portConstraint=eastwest;strokeColor=#6c8ebf;" parent="CqulzE3-XeiQ91XCOGyz-1" vertex="1">
          <mxGeometry y="286" width="200" height="26" as="geometry" />
        </mxCell>
        <mxCell id="CqulzE3-XeiQ91XCOGyz-11" value="LastSeen                                 Date" style="text;fillColor=#dae8fc;align=left;verticalAlign=top;spacingLeft=4;spacingRight=4;overflow=hidden;rotatable=0;points=[[0,0.5],[1,0.5]];portConstraint=eastwest;strokeColor=#6c8ebf;" parent="CqulzE3-XeiQ91XCOGyz-1" vertex="1">
          <mxGeometry y="312" width="200" height="26" as="geometry" />
        </mxCell>
        <mxCell id="CqulzE3-XeiQ91XCOGyz-9" value="Deleted                               Boolean" style="text;fillColor=#dae8fc;align=left;verticalAlign=top;spacingLeft=4;spacingRight=4;overflow=hidden;rotatable=0;points=[[0,0.5],[1,0.5]];portConstraint=eastwest;strokeColor=#6c8ebf;" parent="CqulzE3-XeiQ91XCOGyz-1" vertex="1">
          <mxGeometry y="338" width="200" height="26" as="geometry" />
        </mxCell>
        <mxCell id="CqulzE3-XeiQ91XCOGyz-6" value="Address                                 String" style="text;fillColor=#dae8fc;align=left;verticalAlign=top;spacingLeft=4;spacingRight=4;overflow=hidden;rotatable=0;points=[[0,0.5],[1,0.5]];portConstraint=eastwest;strokeColor=#6c8ebf;" parent="CqulzE3-XeiQ91XCOGyz-1" vertex="1">
          <mxGeometry y="364" width="200" height="26" as="geometry" />
        </mxCell>
        <mxCell id="CqulzE3-XeiQ91XCOGyz-16" value="WebSiteAddress                    String" style="text;fillColor=#dae8fc;align=left;verticalAlign=top;spacingLeft=4;spacingRight=4;overflow=hidden;rotatable=0;points=[[0,0.5],[1,0.5]];portConstraint=eastwest;strokeColor=#6c8ebf;" parent="CqulzE3-XeiQ91XCOGyz-1" vertex="1">
          <mxGeometry y="390" width="200" height="26" as="geometry" />
        </mxCell>
        <mxCell id="CqulzE3-XeiQ91XCOGyz-39" value="VipSub                                      Date" style="text;fillColor=#dae8fc;align=left;verticalAlign=top;spacingLeft=4;spacingRight=4;overflow=hidden;rotatable=0;points=[[0,0.5],[1,0.5]];portConstraint=eastwest;strokeColor=#6c8ebf;" parent="CqulzE3-XeiQ91XCOGyz-1" vertex="1">
          <mxGeometry y="416" width="200" height="26" as="geometry" />
        </mxCell>
        <mxCell id="CqulzE3-XeiQ91XCOGyz-17" value="VerifyCodes" style="swimlane;fontStyle=0;childLayout=stackLayout;horizontal=1;startSize=26;fillColor=#dae8fc;horizontalStack=0;resizeParent=1;resizeParentMax=0;resizeLast=0;collapsible=1;marginBottom=0;strokeColor=#6c8ebf;" parent="1" vertex="1">
          <mxGeometry x="270" y="-2160" width="330" height="156" as="geometry">
            <mxRectangle x="60" y="280" width="60" height="26" as="alternateBounds" />
          </mxGeometry>
        </mxCell>
        <mxCell id="CqulzE3-XeiQ91XCOGyz-98" value="_di(PK)                                                                              UID" style="text;fillColor=#dae8fc;align=left;verticalAlign=top;spacingLeft=4;spacingRight=4;overflow=hidden;rotatable=0;points=[[0,0.5],[1,0.5]];portConstraint=eastwest;strokeColor=#6c8ebf;" parent="CqulzE3-XeiQ91XCOGyz-17" vertex="1">
          <mxGeometry y="26" width="330" height="26" as="geometry" />
        </mxCell>
        <mxCell id="CqulzE3-XeiQ91XCOGyz-32" value="User(FK)                                                                           UID" style="text;fillColor=#dae8fc;align=left;verticalAlign=top;spacingLeft=4;spacingRight=4;overflow=hidden;rotatable=0;points=[[0,0.5],[1,0.5]];portConstraint=eastwest;strokeColor=#6c8ebf;" parent="CqulzE3-XeiQ91XCOGyz-17" vertex="1">
          <mxGeometry y="52" width="330" height="26" as="geometry" />
        </mxCell>
        <mxCell id="CqulzE3-XeiQ91XCOGyz-33" value="Code                                    String(Fristnumber Can be zero)" style="text;fillColor=#dae8fc;align=left;verticalAlign=top;spacingLeft=4;spacingRight=4;overflow=hidden;rotatable=0;points=[[0,0.5],[1,0.5]];portConstraint=eastwest;strokeColor=#6c8ebf;" parent="CqulzE3-XeiQ91XCOGyz-17" vertex="1">
          <mxGeometry y="78" width="330" height="26" as="geometry" />
        </mxCell>
        <mxCell id="CqulzE3-XeiQ91XCOGyz-34" value="Reason                  String(ForgetPass,Verify Email or Phone)" style="text;fillColor=#dae8fc;align=left;verticalAlign=top;spacingLeft=4;spacingRight=4;overflow=hidden;rotatable=0;points=[[0,0.5],[1,0.5]];portConstraint=eastwest;strokeColor=#6c8ebf;" parent="CqulzE3-XeiQ91XCOGyz-17" vertex="1">
          <mxGeometry y="104" width="330" height="26" as="geometry" />
        </mxCell>
        <mxCell id="CqulzE3-XeiQ91XCOGyz-38" value="ExpireAt                                                                          Date" style="text;fillColor=#dae8fc;align=left;verticalAlign=top;spacingLeft=4;spacingRight=4;overflow=hidden;rotatable=0;points=[[0,0.5],[1,0.5]];portConstraint=eastwest;strokeColor=#6c8ebf;" parent="CqulzE3-XeiQ91XCOGyz-17" vertex="1">
          <mxGeometry y="130" width="330" height="26" as="geometry" />
        </mxCell>
        <mxCell id="CqulzE3-XeiQ91XCOGyz-36" value="" style="endArrow=classic;html=1;exitX=1;exitY=0.5;exitDx=0;exitDy=0;entryX=0;entryY=0.5;entryDx=0;entryDy=0;" parent="1" source="CqulzE3-XeiQ91XCOGyz-2" target="CqulzE3-XeiQ91XCOGyz-32" edge="1">
          <mxGeometry relative="1" as="geometry">
            <mxPoint x="240" y="-2120" as="sourcePoint" />
            <mxPoint x="270" y="-2110" as="targetPoint" />
          </mxGeometry>
        </mxCell>
        <mxCell id="CqulzE3-XeiQ91XCOGyz-37" value="1 to X" style="edgeLabel;resizable=0;html=1;align=center;verticalAlign=middle;" parent="CqulzE3-XeiQ91XCOGyz-36" connectable="0" vertex="1">
          <mxGeometry relative="1" as="geometry" />
        </mxCell>
        <mxCell id="CqulzE3-XeiQ91XCOGyz-56" value="vip&#xa;" style="swimlane;fontStyle=0;childLayout=stackLayout;horizontal=1;startSize=26;fillColor=#dae8fc;horizontalStack=0;resizeParent=1;resizeParentMax=0;resizeLast=0;collapsible=1;marginBottom=0;strokeColor=#6c8ebf;" parent="1" vertex="1">
          <mxGeometry x="270" y="-1978" width="330" height="156" as="geometry">
            <mxRectangle x="60" y="280" width="60" height="26" as="alternateBounds" />
          </mxGeometry>
        </mxCell>
        <mxCell id="CqulzE3-XeiQ91XCOGyz-57" value="_id(PK)                                                                              Uid" style="text;fillColor=#dae8fc;align=left;verticalAlign=top;spacingLeft=4;spacingRight=4;overflow=hidden;rotatable=0;points=[[0,0.5],[1,0.5]];portConstraint=eastwest;strokeColor=#6c8ebf;" parent="CqulzE3-XeiQ91XCOGyz-56" vertex="1">
          <mxGeometry y="26" width="330" height="26" as="geometry" />
        </mxCell>
        <mxCell id="CqulzE3-XeiQ91XCOGyz-97" value="Title                                                                                String" style="text;fillColor=#dae8fc;align=left;verticalAlign=top;spacingLeft=4;spacingRight=4;overflow=hidden;rotatable=0;points=[[0,0.5],[1,0.5]];portConstraint=eastwest;strokeColor=#6c8ebf;" parent="CqulzE3-XeiQ91XCOGyz-56" vertex="1">
          <mxGeometry y="52" width="330" height="26" as="geometry" />
        </mxCell>
        <mxCell id="YH2wg9rR1DSbsnuzPDU5-1" value="Cost                                                                            Number" style="text;fillColor=#dae8fc;align=left;verticalAlign=top;spacingLeft=4;spacingRight=4;overflow=hidden;rotatable=0;points=[[0,0.5],[1,0.5]];portConstraint=eastwest;strokeColor=#6c8ebf;" vertex="1" parent="CqulzE3-XeiQ91XCOGyz-56">
          <mxGeometry y="78" width="330" height="26" as="geometry" />
        </mxCell>
        <mxCell id="CqulzE3-XeiQ91XCOGyz-58" value="Day                                                                              Number" style="text;fillColor=#dae8fc;align=left;verticalAlign=top;spacingLeft=4;spacingRight=4;overflow=hidden;rotatable=0;points=[[0,0.5],[1,0.5]];portConstraint=eastwest;strokeColor=#6c8ebf;" parent="CqulzE3-XeiQ91XCOGyz-56" vertex="1">
          <mxGeometry y="104" width="330" height="26" as="geometry" />
        </mxCell>
        <mxCell id="CqulzE3-XeiQ91XCOGyz-59" value="Discount                                                    Number(defualt 1)" style="text;fillColor=#dae8fc;align=left;verticalAlign=top;spacingLeft=4;spacingRight=4;overflow=hidden;rotatable=0;points=[[0,0.5],[1,0.5]];portConstraint=eastwest;strokeColor=#6c8ebf;" parent="CqulzE3-XeiQ91XCOGyz-56" vertex="1">
          <mxGeometry y="130" width="330" height="26" as="geometry" />
        </mxCell>
        <mxCell id="CqulzE3-XeiQ91XCOGyz-61" value="SqlServer2017" style="rounded=1;whiteSpace=wrap;html=1;" parent="1" vertex="1">
          <mxGeometry x="270" y="-2200" width="240" height="30" as="geometry" />
        </mxCell>
        <mxCell id="CqulzE3-XeiQ91XCOGyz-62" value="Course" style="swimlane;fontStyle=0;childLayout=stackLayout;horizontal=1;startSize=26;fillColor=#dae8fc;horizontalStack=0;resizeParent=1;resizeParentMax=0;resizeLast=0;collapsible=1;marginBottom=0;strokeColor=#6c8ebf;" parent="1" vertex="1">
          <mxGeometry x="620" y="-2160" width="200" height="312" as="geometry">
            <mxRectangle x="60" y="280" width="60" height="26" as="alternateBounds" />
          </mxGeometry>
        </mxCell>
        <mxCell id="CqulzE3-XeiQ91XCOGyz-63" value="_id(PK)                      UID(UniqueID)" style="text;fillColor=#dae8fc;align=left;verticalAlign=top;spacingLeft=4;spacingRight=4;overflow=hidden;rotatable=0;points=[[0,0.5],[1,0.5]];portConstraint=eastwest;strokeColor=#6c8ebf;" parent="CqulzE3-XeiQ91XCOGyz-62" vertex="1">
          <mxGeometry y="26" width="200" height="26" as="geometry" />
        </mxCell>
        <mxCell id="CqulzE3-XeiQ91XCOGyz-64" value="Title                                        String" style="text;fillColor=#dae8fc;align=left;verticalAlign=top;spacingLeft=4;spacingRight=4;overflow=hidden;rotatable=0;points=[[0,0.5],[1,0.5]];portConstraint=eastwest;strokeColor=#6c8ebf;" parent="CqulzE3-XeiQ91XCOGyz-62" vertex="1">
          <mxGeometry y="52" width="200" height="26" as="geometry" />
        </mxCell>
        <mxCell id="CqulzE3-XeiQ91XCOGyz-66" value="Image                                     String" style="text;fillColor=#dae8fc;align=left;verticalAlign=top;spacingLeft=4;spacingRight=4;overflow=hidden;rotatable=0;points=[[0,0.5],[1,0.5]];portConstraint=eastwest;strokeColor=#6c8ebf;" parent="CqulzE3-XeiQ91XCOGyz-62" vertex="1">
          <mxGeometry y="78" width="200" height="26" as="geometry" />
        </mxCell>
        <mxCell id="CqulzE3-XeiQ91XCOGyz-67" value="Owner(FK)                                UID" style="text;fillColor=#dae8fc;align=left;verticalAlign=top;spacingLeft=4;spacingRight=4;overflow=hidden;rotatable=0;points=[[0,0.5],[1,0.5]];portConstraint=eastwest;strokeColor=#6c8ebf;" parent="CqulzE3-XeiQ91XCOGyz-62" vertex="1">
          <mxGeometry y="104" width="200" height="26" as="geometry" />
        </mxCell>
        <mxCell id="CqulzE3-XeiQ91XCOGyz-71" value="Description                             String" style="text;fillColor=#dae8fc;align=left;verticalAlign=top;spacingLeft=4;spacingRight=4;overflow=hidden;rotatable=0;points=[[0,0.5],[1,0.5]];portConstraint=eastwest;strokeColor=#6c8ebf;" parent="CqulzE3-XeiQ91XCOGyz-62" vertex="1">
          <mxGeometry y="130" width="200" height="26" as="geometry" />
        </mxCell>
        <mxCell id="CqulzE3-XeiQ91XCOGyz-69" value="Rate                             Double(0-10)" style="text;fillColor=#dae8fc;align=left;verticalAlign=top;spacingLeft=4;spacingRight=4;overflow=hidden;rotatable=0;points=[[0,0.5],[1,0.5]];portConstraint=eastwest;strokeColor=#6c8ebf;" parent="CqulzE3-XeiQ91XCOGyz-62" vertex="1">
          <mxGeometry y="156" width="200" height="26" as="geometry" />
        </mxCell>
        <mxCell id="CqulzE3-XeiQ91XCOGyz-70" value="WholeCourseTime                  Time" style="text;fillColor=#dae8fc;align=left;verticalAlign=top;spacingLeft=4;spacingRight=4;overflow=hidden;rotatable=0;points=[[0,0.5],[1,0.5]];portConstraint=eastwest;strokeColor=#6c8ebf;" parent="CqulzE3-XeiQ91XCOGyz-62" vertex="1">
          <mxGeometry y="182" width="200" height="26" as="geometry" />
        </mxCell>
        <mxCell id="CqulzE3-XeiQ91XCOGyz-73" value="CreatedAt                                Date" style="text;fillColor=#dae8fc;align=left;verticalAlign=top;spacingLeft=4;spacingRight=4;overflow=hidden;rotatable=0;points=[[0,0.5],[1,0.5]];portConstraint=eastwest;strokeColor=#6c8ebf;" parent="CqulzE3-XeiQ91XCOGyz-62" vertex="1">
          <mxGeometry y="208" width="200" height="26" as="geometry" />
        </mxCell>
        <mxCell id="CqulzE3-XeiQ91XCOGyz-75" value="Deleted                               Boolean" style="text;fillColor=#dae8fc;align=left;verticalAlign=top;spacingLeft=4;spacingRight=4;overflow=hidden;rotatable=0;points=[[0,0.5],[1,0.5]];portConstraint=eastwest;strokeColor=#6c8ebf;" parent="CqulzE3-XeiQ91XCOGyz-62" vertex="1">
          <mxGeometry y="234" width="200" height="26" as="geometry" />
        </mxCell>
        <mxCell id="CqulzE3-XeiQ91XCOGyz-76" value="Slug                                        String" style="text;fillColor=#dae8fc;align=left;verticalAlign=top;spacingLeft=4;spacingRight=4;overflow=hidden;rotatable=0;points=[[0,0.5],[1,0.5]];portConstraint=eastwest;strokeColor=#6c8ebf;" parent="CqulzE3-XeiQ91XCOGyz-62" vertex="1">
          <mxGeometry y="260" width="200" height="26" as="geometry" />
        </mxCell>
        <mxCell id="CqulzE3-XeiQ91XCOGyz-77" value="VIP                                      Boolean" style="text;fillColor=#dae8fc;align=left;verticalAlign=top;spacingLeft=4;spacingRight=4;overflow=hidden;rotatable=0;points=[[0,0.5],[1,0.5]];portConstraint=eastwest;strokeColor=#6c8ebf;" parent="CqulzE3-XeiQ91XCOGyz-62" vertex="1">
          <mxGeometry y="286" width="200" height="26" as="geometry" />
        </mxCell>
        <mxCell id="CqulzE3-XeiQ91XCOGyz-79" value="CourseEpisodes" style="swimlane;fontStyle=0;childLayout=stackLayout;horizontal=1;startSize=26;fillColor=#dae8fc;horizontalStack=0;resizeParent=1;resizeParentMax=0;resizeLast=0;collapsible=1;marginBottom=0;strokeColor=#6c8ebf;" parent="1" vertex="1">
          <mxGeometry x="860" y="-2160" width="200" height="260" as="geometry">
            <mxRectangle x="60" y="280" width="60" height="26" as="alternateBounds" />
          </mxGeometry>
        </mxCell>
        <mxCell id="CqulzE3-XeiQ91XCOGyz-80" value="_id(PK)                      UID(UniqueID)" style="text;fillColor=#dae8fc;align=left;verticalAlign=top;spacingLeft=4;spacingRight=4;overflow=hidden;rotatable=0;points=[[0,0.5],[1,0.5]];portConstraint=eastwest;strokeColor=#6c8ebf;" parent="CqulzE3-XeiQ91XCOGyz-79" vertex="1">
          <mxGeometry y="26" width="200" height="26" as="geometry" />
        </mxCell>
        <mxCell id="CqulzE3-XeiQ91XCOGyz-92" value="Course(FK)               UID(UniqueID)" style="text;fillColor=#dae8fc;align=left;verticalAlign=top;spacingLeft=4;spacingRight=4;overflow=hidden;rotatable=0;points=[[0,0.5],[1,0.5]];portConstraint=eastwest;strokeColor=#6c8ebf;" parent="CqulzE3-XeiQ91XCOGyz-79" vertex="1">
          <mxGeometry y="52" width="200" height="26" as="geometry" />
        </mxCell>
        <mxCell id="CqulzE3-XeiQ91XCOGyz-82" value="Time                                         time" style="text;fillColor=#dae8fc;align=left;verticalAlign=top;spacingLeft=4;spacingRight=4;overflow=hidden;rotatable=0;points=[[0,0.5],[1,0.5]];portConstraint=eastwest;strokeColor=#6c8ebf;" parent="CqulzE3-XeiQ91XCOGyz-79" vertex="1">
          <mxGeometry y="78" width="200" height="26" as="geometry" />
        </mxCell>
        <mxCell id="CqulzE3-XeiQ91XCOGyz-84" value="Description                              String" style="text;fillColor=#dae8fc;align=left;verticalAlign=top;spacingLeft=4;spacingRight=4;overflow=hidden;rotatable=0;points=[[0,0.5],[1,0.5]];portConstraint=eastwest;strokeColor=#6c8ebf;" parent="CqulzE3-XeiQ91XCOGyz-79" vertex="1">
          <mxGeometry y="104" width="200" height="26" as="geometry" />
        </mxCell>
        <mxCell id="CqulzE3-XeiQ91XCOGyz-86" value="Rate                            Double(0-10)" style="text;fillColor=#dae8fc;align=left;verticalAlign=top;spacingLeft=4;spacingRight=4;overflow=hidden;rotatable=0;points=[[0,0.5],[1,0.5]];portConstraint=eastwest;strokeColor=#6c8ebf;" parent="CqulzE3-XeiQ91XCOGyz-79" vertex="1">
          <mxGeometry y="130" width="200" height="26" as="geometry" />
        </mxCell>
        <mxCell id="CqulzE3-XeiQ91XCOGyz-88" value="CreatedAt                                Date" style="text;fillColor=#dae8fc;align=left;verticalAlign=top;spacingLeft=4;spacingRight=4;overflow=hidden;rotatable=0;points=[[0,0.5],[1,0.5]];portConstraint=eastwest;strokeColor=#6c8ebf;" parent="CqulzE3-XeiQ91XCOGyz-79" vertex="1">
          <mxGeometry y="156" width="200" height="26" as="geometry" />
        </mxCell>
        <mxCell id="CqulzE3-XeiQ91XCOGyz-89" value="Deleted                               Boolean" style="text;fillColor=#dae8fc;align=left;verticalAlign=top;spacingLeft=4;spacingRight=4;overflow=hidden;rotatable=0;points=[[0,0.5],[1,0.5]];portConstraint=eastwest;strokeColor=#6c8ebf;" parent="CqulzE3-XeiQ91XCOGyz-79" vertex="1">
          <mxGeometry y="182" width="200" height="26" as="geometry" />
        </mxCell>
        <mxCell id="CqulzE3-XeiQ91XCOGyz-90" value="Slug                                        String" style="text;fillColor=#dae8fc;align=left;verticalAlign=top;spacingLeft=4;spacingRight=4;overflow=hidden;rotatable=0;points=[[0,0.5],[1,0.5]];portConstraint=eastwest;strokeColor=#6c8ebf;" parent="CqulzE3-XeiQ91XCOGyz-79" vertex="1">
          <mxGeometry y="208" width="200" height="26" as="geometry" />
        </mxCell>
        <mxCell id="CqulzE3-XeiQ91XCOGyz-91" value="VIP                                      Boolean" style="text;fillColor=#dae8fc;align=left;verticalAlign=top;spacingLeft=4;spacingRight=4;overflow=hidden;rotatable=0;points=[[0,0.5],[1,0.5]];portConstraint=eastwest;strokeColor=#6c8ebf;" parent="CqulzE3-XeiQ91XCOGyz-79" vertex="1">
          <mxGeometry y="234" width="200" height="26" as="geometry" />
        </mxCell>
        <mxCell id="CqulzE3-XeiQ91XCOGyz-95" value="" style="endArrow=classic;html=1;entryX=0;entryY=0.5;entryDx=0;entryDy=0;exitX=1;exitY=0.5;exitDx=0;exitDy=0;" parent="1" source="CqulzE3-XeiQ91XCOGyz-63" target="CqulzE3-XeiQ91XCOGyz-92" edge="1">
          <mxGeometry relative="1" as="geometry">
            <mxPoint x="820" y="-2121" as="sourcePoint" />
            <mxPoint x="920" y="-2121.5" as="targetPoint" />
            <Array as="points">
              <mxPoint x="830" y="-2090" />
            </Array>
          </mxGeometry>
        </mxCell>
        <mxCell id="CqulzE3-XeiQ91XCOGyz-96" value="1 To X" style="edgeLabel;resizable=0;html=1;align=center;verticalAlign=middle;" parent="CqulzE3-XeiQ91XCOGyz-95" connectable="0" vertex="1">
          <mxGeometry relative="1" as="geometry">
            <mxPoint x="11.57" y="-17.57" as="offset" />
          </mxGeometry>
        </mxCell>
      </root>
    </mxGraphModel>
  </diagram>
</mxfile>
